<svg width="1024" height="1024" fill="none" xmlns="http://www.w3.org/2000/svg"><path d="m522.488 480.033.959.273c75.089-198.953 291.087-310.991 499.723-252.771-58.988 209.469-268.644 335.959-478.617 294.954l-.272.958c198.953 75.089 310.99 291.087 252.771 499.723-209.471-58.988-335.962-268.645-294.956-478.617l-.958-.273C426.05 743.234 210.053 855.272 1.418 797.052 60.404 587.581 270.06 461.09 480.034 502.096l.272-.958C281.353 426.05 169.315 210.053 227.535 1.418 437.004 60.404 563.493 270.06 522.488 480.033Zm-10.689 32.13-.108.386.353.19.017.009.459.245.227-.467.01-.021.262-.539-.576-.161h-.001v-.001h-.004v-.001h-.003l-.001-.001h-.003v-.001h-.003l-.001-.001h-.003v-.001h-.003l-.482-.135-.135.481-.005.018Z" stroke="#fff" stroke-opacity=".09"/></svg>